<?xml version="1.0" encoding="utf-8"?>
<!-- Generator: Adobe Illustrator 27.5.0, SVG Export Plug-In . SVG Version: 6.00 Build 0)  -->
<svg version="1.1" xmlns="http://www.w3.org/2000/svg" xmlns:xlink="http://www.w3.org/1999/xlink" x="0px" y="0px"
	 viewBox="0 0 750 500" style="enable-background:new 0 0 750 500;" xml:space="preserve">
<g id="BACKGROUND">
	<g>
		<radialGradient id="SVGID_1_" cx="384.0233" cy="217.9075" r="546.6029" gradientUnits="userSpaceOnUse">
			<stop  offset="0" style="stop-color:#B24EE3"/>
			<stop  offset="0.2158" style="stop-color:#AB4EE6"/>
			<stop  offset="0.5375" style="stop-color:#9650EE"/>
			<stop  offset="0.9236" style="stop-color:#7552FC"/>
			<stop  offset="1" style="stop-color:#6E52FF"/>
		</radialGradient>
		<rect style="fill:url(#SVGID_1_);" width="auto" height="auto"/>
		<g>
			<ellipse style="opacity:0.2;fill:#8651F5;" cx="371.27" cy="432.717" rx="281.307" ry="13.972"/>
			<path style="opacity:0.3;fill:#FFFFFF;" d="M199.74,269.61v-12.208l-9.555-0.702c-0.814-3.726-2.282-7.205-4.277-10.316
				l6.263-7.256l-8.632-8.632l-7.256,6.263c-3.111-1.995-6.59-3.464-10.316-4.277l-0.702-9.555h-12.208l-0.702,9.555
				c-3.726,0.814-7.205,2.282-10.316,4.278l-7.256-6.263l-8.632,8.632l6.263,7.256c-1.995,3.111-3.464,6.59-4.277,10.316
				l-9.555,0.702v12.208l9.555,0.702c0.814,3.726,2.282,7.205,4.278,10.316l-6.263,7.256l8.632,8.632l7.256-6.263
				c3.111,1.996,6.59,3.464,10.316,4.277l0.702,9.555h12.207l0.702-9.555c3.726-0.814,7.205-2.282,10.316-4.277l7.256,6.263
				l8.632-8.632l-6.263-7.256c1.996-3.111,3.464-6.59,4.277-10.316L199.74,269.61z M180.885,263.506
				c0,11.998-9.726,21.724-21.724,21.724c-11.998,0-21.724-9.726-21.724-21.724c0-11.998,9.726-21.724,21.724-21.724
				C171.159,241.782,180.885,251.508,180.885,263.506z"/>
			<path style="opacity:0.3;fill:#FFFFFF;" d="M156.567,212.014v-4.768l-3.732-0.274c-0.318-1.455-0.891-2.814-1.671-4.029
				l2.446-2.834l-3.371-3.371l-2.834,2.446c-1.215-0.779-2.574-1.353-4.029-1.671l-0.274-3.732h-4.768l-0.274,3.732
				c-1.455,0.318-2.814,0.891-4.029,1.671l-2.834-2.446l-3.371,3.371l2.446,2.834c-0.779,1.215-1.353,2.574-1.671,4.029
				l-3.732,0.274v4.768l3.732,0.274c0.318,1.455,0.891,2.814,1.671,4.029l-2.446,2.834l3.371,3.371l2.834-2.446
				c1.215,0.779,2.574,1.353,4.029,1.671l0.274,3.732h4.768l0.274-3.732c1.455-0.318,2.814-0.891,4.029-1.671l2.834,2.446
				l3.371-3.371l-2.446-2.834c0.779-1.215,1.353-2.574,1.671-4.029L156.567,212.014z M149.203,209.63
				c0,4.686-3.799,8.484-8.484,8.484c-4.686,0-8.484-3.799-8.484-8.484c0-4.686,3.799-8.484,8.484-8.484
				C145.405,201.146,149.203,204.945,149.203,209.63z"/>
			<g>
				
					<linearGradient id="SVGID_00000115515446633453064500000004536282484395852467_" gradientUnits="userSpaceOnUse" x1="157.1616" y1="316.9416" x2="154.5311" y2="267.338">
					<stop  offset="0" style="stop-color:#2975AA"/>
					<stop  offset="1" style="stop-color:#7FFFC5"/>
				</linearGradient>
				<path style="fill:url(#SVGID_00000115515446633453064500000004536282484395852467_);" d="M174.576,363.418
					c-12.571-10.194-21.557-24.374-27.073-39.59c-5.516-15.216-7.708-31.471-8.206-47.649c-0.126-4.089-0.074-8.446,2.14-11.885
					c2.214-3.44,7.398-5.261,10.512-2.608c2.238,1.906,2.56,5.185,2.721,8.12c1.003,18.33,1.325,36.846,3.012,55.124
					c1.385,15.001,6.8,29.219,17.777,39.868"/>
				<g style="opacity:0.4;">
					<path style="fill:#40AFBF;" d="M155.306,336.046c-0.22,0-0.422-0.146-0.483-0.368c-5.953-21.811-8.576-44.328-7.795-66.923
						c0.011-0.275,0.254-0.48,0.518-0.482c0.275,0.01,0.491,0.241,0.482,0.518c-0.778,22.494,1.833,44.91,7.76,66.624
						c0.072,0.267-0.084,0.541-0.351,0.614C155.394,336.04,155.349,336.046,155.306,336.046z"/>
				</g>
			</g>
			<g>
				
					<linearGradient id="SVGID_00000057829020791130205620000007751037640304500651_" gradientUnits="userSpaceOnUse" x1="147.9544" y1="339.3071" x2="138.9356" y2="294.213">
					<stop  offset="0.0039" style="stop-color:#1A2350"/>
					<stop  offset="1" style="stop-color:#2B449A"/>
				</linearGradient>
				<path style="fill:url(#SVGID_00000057829020791130205620000007751037640304500651_);" d="M130.773,302.069
					c-0.722-2.954-1.355-6.044-0.694-9.012c0.661-2.968,2.965-5.781,5.991-6.074c2.856-0.276,5.53,1.754,6.919,4.264
					s1.768,5.435,2.168,8.276c3.1,22.013,8.984,43.633,17.468,64.181c-1.632-3.899-6.359-7.512-8.897-11.002
					c-3.644-5.01-6.826-10.425-9.724-15.894C138.187,325.832,133.723,314.136,130.773,302.069z"/>
				<g style="opacity:0.5;">
					<path style="fill:#40AFBF;" d="M153.301,345.417c-0.183,0-0.358-0.101-0.446-0.275c-8.278-16.46-13.971-34.024-16.919-52.208
						c-0.045-0.272,0.141-0.529,0.413-0.573c0.268-0.048,0.529,0.141,0.573,0.413c2.933,18.083,8.594,35.551,16.825,51.919
						c0.124,0.247,0.025,0.547-0.222,0.671C153.453,345.4,153.377,345.417,153.301,345.417z"/>
				</g>
			</g>
			
				<linearGradient id="SVGID_00000165922148103643801640000007798962412421811630_" gradientUnits="userSpaceOnUse" x1="155.076" y1="386.3137" x2="99.9447" y2="292.7947">
				<stop  offset="0" style="stop-color:#278FBD"/>
				<stop  offset="1" style="stop-color:#7FFFC5"/>
			</linearGradient>
			<path style="fill:url(#SVGID_00000165922148103643801640000007798962412421811630_);" d="M137.32,399.843
				c-4.201-7.27-3.981-16.744-9.292-23.247c-4.335-5.307-11.721-7.75-15.191-13.659c-5.974-10.174,3.011-23.812-1.479-34.722
				c-3.539-8.6-14.437-12.772-17.029-21.703c-1.731-5.963,1.316-12.948,6.864-15.736c5.548-2.788,12.971-1.064,16.723,3.884
				c4.59,6.053,4.005,15.77,10.424,19.832c4.204,2.661,10.078,1.788,13.973,4.885c4.803,3.819,4.004,11.219,6.169,16.961
				c2.518,6.679,8.992,10.854,13.897,16.039c7.422,7.846,11.494,18.762,11.023,29.552c-0.369,8.473-4.477,22.921-12.542,27.536
				C153.081,413.916,141.231,406.613,137.32,399.843z"/>
			
				<linearGradient id="SVGID_00000056410910216081655660000010091740725910975385_" gradientUnits="userSpaceOnUse" x1="147.8585" y1="417.1211" x2="94.3606" y2="330.9526">
				<stop  offset="0.0039" style="stop-color:#F1C06B"/>
				<stop  offset="1" style="stop-color:#7FFFC5"/>
			</linearGradient>
			<path style="fill:url(#SVGID_00000056410910216081655660000010091740725910975385_);" d="M124.456,394.438
				c-4.265-3.038-10.603-2.725-14.023-6.69c-3.078-3.569-2.385-8.951-3.86-13.427c-1.366-4.147-4.561-7.39-7.642-10.484
				c-3.081-3.094-6.254-6.369-7.555-10.537c-1.301-4.168-0.055-9.479,3.884-11.363c4.639-2.22,10.071,1.285,13.132,5.417
				c3.061,4.132,5.172,9.192,9.427,12.081c4.471,3.036,10.723,3.214,14.379,7.194c2.982,3.247,3.333,8.065,5.218,12.051
				c2.385,5.043,7.089,8.508,11.42,12.025c9.563,7.767,15.404,22.561-0.183,27.338C130.404,423.637,134.561,401.635,124.456,394.438
				z"/>
			<g style="opacity:0.5;">
				<g>
					<path style="fill:#FFFFFF;" d="M149.086,407.806c-0.134,0-0.269-0.054-0.366-0.16c-16.806-18.128-33.543-36.781-49.75-55.441
						c-0.181-0.209-0.158-0.524,0.05-0.706c0.209-0.181,0.524-0.158,0.706,0.05c16.199,18.652,32.93,37.298,49.726,55.418
						c0.189,0.202,0.176,0.519-0.026,0.706C149.33,407.762,149.208,407.806,149.086,407.806z"/>
				</g>
				<g>
					<path style="fill:#FFFFFF;" d="M124.585,380.952c-0.27,0-0.491-0.214-0.5-0.484l-0.368-11.495
						c-0.009-0.275,0.208-0.507,0.484-0.516c0.275,0.009,0.507,0.209,0.516,0.484l0.368,11.495c0.009,0.275-0.208,0.507-0.484,0.516
						C124.596,380.952,124.59,380.952,124.585,380.952z"/>
				</g>
				<g>
					<path style="fill:#FFFFFF;" d="M128.872,385.712c-0.276,0-0.5-0.224-0.5-0.5v-11.938c0-0.276,0.224-0.5,0.5-0.5
						c0.276,0,0.5,0.224,0.5,0.5v11.938C129.372,385.488,129.149,385.712,128.872,385.712z"/>
				</g>
				<g>
					<path style="fill:#FFFFFF;" d="M119.442,375.204c-0.027,0-0.055-0.002-0.083-0.007l-8.612-1.43
						c-0.273-0.045-0.456-0.303-0.411-0.575c0.046-0.272,0.297-0.459,0.575-0.411l8.612,1.43c0.272,0.045,0.456,0.303,0.411,0.575
						C119.893,375.03,119.682,375.204,119.442,375.204z"/>
				</g>
				<g>
					<path style="fill:#FFFFFF;" d="M107.983,362.261c-0.27,0-0.492-0.215-0.5-0.486l-0.225-8.062
						c-0.008-0.275,0.21-0.506,0.486-0.514c0.283-0.007,0.506,0.21,0.514,0.486l0.225,8.062c0.008,0.275-0.21,0.506-0.486,0.514
						C107.991,362.261,107.988,362.261,107.983,362.261z"/>
				</g>
				<g>
					<path style="fill:#FFFFFF;" d="M142.859,401.059c-0.034,0-0.068-0.003-0.104-0.011l-10.773-2.248
						c-0.27-0.057-0.443-0.321-0.387-0.592c0.056-0.271,0.319-0.446,0.592-0.387l10.773,2.248c0.27,0.057,0.443,0.321,0.387,0.592
						C143.298,400.897,143.09,401.059,142.859,401.059z"/>
				</g>
			</g>
			<g style="opacity:0.4;">
				<g>
					<path style="fill:#40AFBF;" d="M159.16,392.67c-0.173,0-0.342-0.091-0.435-0.252l-53.056-92.983
						c-0.137-0.24-0.053-0.546,0.187-0.683c0.238-0.134,0.545-0.053,0.683,0.187l53.056,92.982c0.137,0.24,0.053,0.546-0.187,0.683
						C159.33,392.648,159.244,392.67,159.16,392.67z"/>
				</g>
				<g>
					<path style="fill:#40AFBF;" d="M141.001,360.845c-0.036,0-0.073-0.004-0.11-0.013l-20.084-4.532
						c-0.27-0.061-0.438-0.328-0.377-0.598c0.06-0.27,0.326-0.439,0.598-0.377l20.084,4.532c0.27,0.061,0.439,0.328,0.377,0.598
						C141.437,360.688,141.231,360.845,141.001,360.845z"/>
				</g>
				<g>
					<path style="fill:#40AFBF;" d="M133.661,347.979c-0.016,0-0.03-0.001-0.045-0.002c-0.275-0.024-0.478-0.268-0.454-0.542
						l1.967-22.149c0.024-0.277,0.279-0.472,0.542-0.454c0.275,0.024,0.479,0.268,0.454,0.542l-1.967,22.149
						C134.135,347.784,133.917,347.979,133.661,347.979z"/>
				</g>
				<g>
					<path style="fill:#40AFBF;" d="M127.342,336.905c-0.019,0-0.037-0.001-0.056-0.003c-0.274-0.03-0.473-0.277-0.442-0.552
						l1.531-13.857c0.03-0.275,0.279-0.475,0.552-0.442c0.274,0.03,0.473,0.277,0.442,0.552l-1.531,13.857
						C127.81,336.716,127.593,336.905,127.342,336.905z"/>
				</g>
				<g>
					<path style="fill:#40AFBF;" d="M113.763,313.108c-0.05,0-0.1-0.007-0.149-0.023l-9.784-3.071
						c-0.264-0.082-0.41-0.363-0.327-0.626c0.082-0.264,0.363-0.408,0.626-0.328l9.784,3.071c0.264,0.083,0.41,0.364,0.328,0.627
						C114.173,312.972,113.976,313.108,113.763,313.108z"/>
				</g>
			</g>
			<path style="opacity:0.4;fill:#8F50F2;" d="M558.988,285.34c-3.521,0-6.386,2.864-6.386,6.385c0,3.521,2.865,6.386,6.386,6.386
				s6.386-2.865,6.386-6.386C565.374,288.204,562.509,285.34,558.988,285.34z M558.988,296.095c-2.409,0-4.369-1.96-4.369-4.37
				s1.96-4.369,4.369-4.369s4.369,1.959,4.369,4.369S561.397,296.095,558.988,296.095z M572.627,302.512l-2.848-2.847
				c-0.526-0.527-1.27-0.693-1.941-0.515l-0.945-0.945c1.45-1.765,2.322-4.022,2.322-6.48c0-5.639-4.588-10.226-10.227-10.226
				c-5.639,0-10.227,4.587-10.227,10.226c0,5.639,4.588,10.227,10.227,10.227c2.457,0,4.714-0.872,6.479-2.322l0.945,0.945
				c-0.177,0.671-0.011,1.414,0.515,1.941l2.848,2.847c0.393,0.394,0.91,0.591,1.426,0.591c0.516,0,1.032-0.197,1.426-0.591
				C573.414,304.576,573.414,303.3,572.627,302.512z M550.778,291.725c0-4.527,3.683-8.21,8.21-8.21c4.527,0,8.21,3.682,8.21,8.21
				c0,4.527-3.683,8.211-8.21,8.211C554.461,299.936,550.778,296.252,550.778,291.725z"/>
			<g>
				<path style="fill:#FFD054;" d="M522.383,383.059v1.335h91.261c1.772,0,3.208-1.436,3.208-3.208v-4.272
					c0-1.771-1.436-3.208-3.208-3.208h-91.261v1.335h0.875v8.017H522.383z"/>
				<path style="fill:#FFFFFF;" d="M523.258,375.042h75.573c1.484,0,2.687,1.203,2.687,2.687v2.643c0,1.484-1.203,2.687-2.687,2.687
					h-75.573V375.042z"/>
				<g>
					<path style="fill:#FF647E;" d="M516.474,397.889v1.335h107.299c1.772,0,3.208-1.436,3.208-3.208v-8.415
						c0-1.772-1.436-3.208-3.208-3.208H516.474v1.335h0.875v12.16H516.474z"/>
					<path style="fill:#F35370;" d="M624.633,385.143h-14.178c0.701,0.588,1.148,1.471,1.148,2.458v8.415
						c0,1.019-0.476,1.924-1.216,2.512h14.178c0.74-0.587,1.216-1.493,1.216-2.512v-8.415
						C625.781,386.614,625.335,385.732,624.633,385.143z"/>
					<path style="fill:#FFFFFF;" d="M517.349,385.728h70.791c1.484,0,2.687,1.203,2.687,2.687v6.786
						c0,1.484-1.203,2.687-2.687,2.687h-70.791V385.728z"/>
				</g>
				<path style="fill:#BAB7F6;" d="M519.453,431.306v1.412h113.484c1.874,0,3.392-1.519,3.392-3.393v-10.249
					c0-1.874-1.519-3.392-3.392-3.392H519.453v1.412h0.925v14.211H519.453z"/>
				<path style="fill:#A39EE9;" d="M633.846,416.476h-14.995c0.742,0.622,1.214,1.555,1.214,2.599v10.249
					c0,1.077-0.504,2.035-1.286,2.657h14.995c0.783-0.621,1.286-1.579,1.286-2.657v-10.249
					C635.061,418.031,634.588,417.099,633.846,416.476z"/>
				<path style="fill:#FFFFFF;" d="M520.378,417.095h74.872c1.569,0,2.842,1.272,2.842,2.842v8.527c0,1.569-1.272,2.842-2.842,2.842
					h-74.872V417.095z"/>
				
					<rect x="610.469" y="376.601" transform="matrix(-1 -1.224647e-16 1.224647e-16 -1 1224.6721 758.1003)" style="fill:#FFFFFF;" width="3.734" height="4.899"/>
				
					<rect x="607.894" y="376.601" transform="matrix(-1 -1.224647e-16 1.224647e-16 -1 1216.8175 758.1003)" style="fill:#FFFFFF;" width="1.03" height="4.899"/>
				<g>
					<path style="fill:#E3E9FF;" d="M510.348,414.348v1.335h107.299c1.772,0,3.208-1.436,3.208-3.208v-10.033
						c0-1.771-1.436-3.208-3.208-3.208H510.348v1.335h0.874v13.778H510.348z"/>
					<path style="fill:#FFFFFF;" d="M511.223,400.57h70.791c1.484,0,2.687,1.203,2.687,2.687v8.404c0,1.484-1.203,2.687-2.687,2.687
						h-70.791V400.57z"/>
					
						<rect x="603.663" y="404.152" transform="matrix(-1 -1.224647e-16 1.224647e-16 -1 1221.4515 816.212)" style="fill:#BAB7F6;" width="14.125" height="7.908"/>
				</g>
			</g>
			<g>
				<path style="fill:#7733D6;" d="M176.662,205.688l-45.436,219.815c-0.77,3.723,2.074,7.214,5.876,7.214h140.755L176.662,205.688z
					"/>
				
					<linearGradient id="SVGID_00000139976407477619007550000004495783919425681338_" gradientUnits="userSpaceOnUse" x1="0.3531" y1="399.8608" x2="206.0428" y2="328.6243">
					<stop  offset="0" style="stop-color:#401784"/>
					<stop  offset="0.4137" style="stop-color:#4F1EA3"/>
					<stop  offset="0.5732" style="stop-color:#4B1C9B"/>
					<stop  offset="0.8206" style="stop-color:#401785"/>
					<stop  offset="1" style="stop-color:#361371"/>
				</linearGradient>
				<path style="fill:url(#SVGID_00000139976407477619007550000004495783919425681338_);" d="M182.649,205.688l-45.436,219.815
					c-0.77,3.723,2.074,7.214,5.876,7.214h140.755L182.649,205.688z"/>
				<g>
					<polygon style="opacity:0.4;fill:#381475;" points="248.286,352.943 246.661,349.297 152.965,349.297 152.212,352.943 					"/>
					<polygon style="opacity:0.4;fill:#381475;" points="166.216,285.189 165.463,288.834 219.711,288.834 218.086,285.189 					"/>
				</g>
				
					<linearGradient id="SVGID_00000086669691507771571130000014106042374040999069_" gradientUnits="userSpaceOnUse" x1="176.5503" y1="315.9391" x2="605.3183" y2="315.9391">
					<stop  offset="0" style="stop-color:#401784"/>
					<stop  offset="0.4137" style="stop-color:#4F1EA3"/>
					<stop  offset="0.5732" style="stop-color:#4B1C9B"/>
					<stop  offset="0.8206" style="stop-color:#401785"/>
					<stop  offset="1" style="stop-color:#361371"/>
				</linearGradient>
				<path style="fill:url(#SVGID_00000086669691507771571130000014106042374040999069_);" d="M597.861,432.717H273.018
					c-5.99,0-12.71-4.856-15.01-10.846l-80.57-209.891c-2.3-5.99-0.065-12.819,5.926-12.819h324.843
					c5.99,0,12.711,4.856,15.01,10.846l81.327,211.864C606.843,427.861,603.851,432.717,597.861,432.717z"/>
				<path style="fill:#361371;" d="M602.7,432.717H277.857c-5.99,0-12.71-4.856-15.01-10.846l-81.327-211.864
					c-2.299-5.99,0.692-10.846,6.683-10.846h324.843c5.99,0,12.71,4.856,15.01,10.846l81.327,211.864
					C611.683,427.861,608.691,432.717,602.7,432.717z"/>
				<path style="fill:#7733D6;" d="M559.285,315.939c1.609,4.191-0.484,7.588-4.675,7.588c-4.191,0-8.892-3.397-10.501-7.588
					c-1.609-4.191,0.484-7.588,4.675-7.588C552.975,308.351,557.676,311.748,559.285,315.939z"/>
				
					<linearGradient id="SVGID_00000115490015508680543320000000337795631344697522_" gradientUnits="userSpaceOnUse" x1="385.596" y1="403.632" x2="385.596" y2="191.5474">
					<stop  offset="0" style="stop-color:#F3CFF7"/>
					<stop  offset="0.2017" style="stop-color:#ECC8F6"/>
					<stop  offset="0.5024" style="stop-color:#D9B3F4"/>
					<stop  offset="0.8633" style="stop-color:#B992F1"/>
					<stop  offset="1" style="stop-color:#AB84EF"/>
				</linearGradient>
				<polygon style="fill:url(#SVGID_00000115490015508680543320000000337795631344697522_);" points="576.091,419.895 
					274.911,419.895 242.201,334.685 195.101,211.975 496.271,211.975 525.891,289.135 				"/>
				<g>
					<g style="opacity:0.2;">
						<polygon style="fill:#D9B4F4;" points="353.901,278.88 234.006,278.88 212.964,224.063 332.858,224.063 						"/>
						<polygon style="fill:#D9B4F4;" points="513.303,278.88 443.689,278.88 422.647,224.063 492.261,224.063 						"/>
						<polygon style="fill:#D9B4F4;" points="431.537,278.88 365.997,278.88 344.955,224.063 410.495,224.063 						"/>
						<polygon style="fill:#D9B4F4;" points="311.207,333.243 254.874,333.243 237.988,289.253 294.32,289.253 						"/>
						<polygon style="fill:#D9B4F4;" points="332.375,388.389 276.043,388.389 259.157,344.399 315.489,344.399 						"/>
						<polygon style="fill:#D9B4F4;" points="442.567,388.163 343.658,388.163 305.69,289.253 404.599,289.253 						"/>
						<polygon style="fill:#D9B4F4;" points="522.288,302.286 422.33,302.286 417.327,289.253 517.285,289.253 						"/>
						<polygon style="fill:#D9B4F4;" points="531.15,325.373 431.192,325.373 426.189,312.34 526.148,312.34 						"/>
						<polygon style="fill:#D9B4F4;" points="540.013,348.46 440.054,348.46 435.051,335.427 535.01,335.427 						"/>
						<polygon style="fill:#D9B4F4;" points="555.253,388.163 455.295,388.163 443.914,358.514 543.872,358.514 						"/>
					</g>
					<path style="opacity:0.3;fill:#FFFFFF;" d="M402.91,319.888c-3.034-2.911-6.731-4.901-10.336-5.662
						c-0.822-2.735-1.758-5.583-2.944-8.673c-0.589-1.536-2.31-2.778-3.845-2.778h-50.309c-1.534,0-2.301,1.242-1.712,2.778
						c1.186,3.09,2.437,5.938,3.715,8.673c-3.021,0.761-5.19,2.751-5.989,5.662c-1.034,3.768,0.362,8.495,3.737,12.64l2.099,2.577
						c2.873,3.53,6.879,6.237,10.989,7.428c1.521,0.44,3.002,0.657,4.395,0.657c1.755,0,3.366-0.349,4.738-1.027
						c6.622,5.642,13.238,8.508,19.057,9.203l2.053,5.348h-11.175c-1.534,0-2.301,1.243-1.712,2.778l5.059,13.18h-3.148
						c-1.534,0-2.301,1.243-1.712,2.778c0.589,1.536,2.31,2.778,3.845,2.778h5.927h27.905h5.927c1.534,0,2.301-1.243,1.712-2.778
						c-0.589-1.536-2.31-2.778-3.844-2.778h-3.148l-5.059-13.18c-0.59-1.536-2.31-2.778-3.845-2.778h-11.174l-2.053-5.348
						c5.286-0.695,9.701-3.561,11.991-9.204c1.894,0.679,3.773,1.028,5.527,1.028c1.393,0,2.708-0.217,3.891-0.657
						c3.196-1.191,5.123-3.899,5.286-7.428l0.12-2.577C409.069,328.382,406.837,323.656,402.91,319.888z M348.011,337.251
						c-2.403-0.697-4.744-2.279-6.425-4.344l-2.099-2.577c-2-2.458-2.796-5.149-2.182-7.385c0.424-1.545,1.489-2.596,2.97-3.122
						c3.839,7.174,7.96,12.965,12.172,17.517C351.154,337.717,349.629,337.716,348.011,337.251z M402.93,330.33l-0.12,2.577
						c-0.096,2.065-1.223,3.646-3.09,4.344c-1.259,0.467-2.783,0.468-4.368,0.089c0.717-4.552,0.393-10.343-1.277-17.518
						c1.885,0.526,3.757,1.577,5.367,3.122C401.773,325.181,403.043,327.872,402.93,330.33z"/>
					<g>
						<g>
							<path style="opacity:0.3;fill:#FFFFFF;" d="M491.793,373.707c2.487,6.478,9.754,11.729,16.232,11.729
								c6.478,0,9.713-5.251,7.227-11.729c-2.487-6.478-9.754-11.729-16.232-11.729
								C492.542,361.977,489.307,367.229,491.793,373.707z"/>
							<path style="fill:#FFFFFF;" d="M501.016,370.127l2.748,7.16c0.33,0.859-0.101,1.558-0.96,1.558
								c-0.859,0-1.826-0.699-2.156-1.558l-2.748-7.16c-0.33-0.859,0.101-1.558,0.96-1.558
								C499.719,368.569,500.686,369.267,501.016,370.127z M504.242,368.569c-0.859,0-1.29,0.698-0.96,1.558l2.748,7.16
								c0.33,0.859,1.297,1.558,2.156,1.558c0.859,0,1.29-0.699,0.96-1.558l-2.748-7.16
								C506.068,369.267,505.101,368.569,504.242,368.569z"/>
						</g>
						<g>
							<path style="opacity:0.3;fill:#FFFFFF;" d="M484.844,373.707c1.823,4.749-0.549,8.598-5.298,8.598
								c-4.749,0-10.076-3.85-11.899-8.598c-1.823-4.749,0.549-8.598,5.298-8.598C477.694,365.108,483.021,368.958,484.844,373.707z
								"/>
							<path style="fill:#FFFFFF;" d="M477.526,370.367c-0.344-0.124-0.656-0.055-0.796,0.171l-1.454,2.36l-0.691-1.801
								c-0.123-0.32-0.426-0.608-0.768-0.73c-0.344-0.124-0.656-0.055-0.796,0.171l-1.608,2.609
								c-0.19,0.309,0.002,0.809,0.429,1.118l3.611,2.609c0.209,0.151,0.442,0.232,0.648,0.232c0.102,0,0.197-0.019,0.279-0.06
								c0.248-0.122,0.33-0.411,0.207-0.73l-0.691-1.801l3.266,2.36c0.209,0.151,0.442,0.232,0.648,0.232
								c0.102,0,0.197-0.019,0.279-0.06c0.249-0.122,0.33-0.411,0.208-0.73l-2.003-5.219
								C478.172,370.777,477.868,370.489,477.526,370.367z"/>
						</g>
						<g>
							<path style="opacity:0.3;fill:#FFFFFF;" d="M522.201,373.707c1.823,4.749,7.15,8.598,11.899,8.598
								c4.749,0,7.121-3.85,5.298-8.598c-1.823-4.749-7.15-8.598-11.899-8.598S520.378,368.958,522.201,373.707z"/>
							<path style="fill:#FFFFFF;" d="M535.203,373.147l-3.611-2.609c-0.313-0.226-0.678-0.295-0.927-0.171
								c-0.248,0.122-0.33,0.411-0.208,0.73l0.692,1.801l-3.266-2.36c-0.313-0.226-0.678-0.295-0.927-0.171
								c-0.248,0.122-0.33,0.411-0.208,0.73l2.003,5.219c0.123,0.32,0.426,0.608,0.768,0.73c0.114,0.041,0.224,0.06,0.326,0.06
								c0.206,0,0.377-0.08,0.47-0.232l1.454-2.36l0.692,1.801c0.123,0.32,0.426,0.608,0.768,0.73
								c0.114,0.041,0.224,0.06,0.326,0.06c0.206,0,0.377-0.08,0.47-0.232l1.608-2.609
								C535.822,373.956,535.63,373.456,535.203,373.147z"/>
						</g>
					</g>
					<path style="opacity:0.3;fill:#FFFFFF;" d="M273.358,304.756l-1.744-4.544h0.921c1.012,0,1.517-0.82,1.128-1.832
						c-0.388-1.012-1.523-1.832-2.535-1.832h-6.815c-1.012,0-1.517,0.82-1.129,1.832c0.388,1.012,1.523,1.832,2.535,1.832h0.921
						l1.744,4.544c-4.208,1.118-6.052,5.292-4.14,10.272c2.241,5.837,8.789,10.569,14.626,10.569c5.837,0,8.753-4.732,6.512-10.569
						C283.473,310.048,278.425,305.874,273.358,304.756z M265.033,310.785c0.31-2.298,1.777-4.047,4.191-4.689l0.957-0.255
						l-2.161-5.629h2.216l2.161,5.629l1.152,0.255c2.906,0.642,5.716,2.391,7.791,4.689H265.033z"/>
					<path style="opacity:0.3;fill:#FFFFFF;" d="M491.759,259.133l-6.209-2.511c1.182-1.775,1.895-4.946-0.222-10.46
						c-3.131-8.155-9.765-11.806-14.952-11.806c-5.185,0-9.016,3.651-5.885,11.806c2.117,5.515,5.263,8.685,7.808,10.461
						l-2.003,1.175c-0.617-0.386-1.24-0.732-1.871-0.988l-3.942-1.594c0.745-1.393,1.068-3.703-0.374-7.459
						c-2.362-6.154-7.39-8.909-11.326-8.909c-3.934,0-6.847,2.754-4.485,8.909c1.442,3.756,3.538,6.066,5.351,7.459l-2.718,1.594
						c-2.146,1.26-2.81,3.957-1.69,6.874c0.282,0.735,1.106,1.33,1.841,1.33h14.035c0.048,1.009,0.256,2.07,0.675,3.162
						c0.282,0.735,1.106,1.33,1.841,1.33h32.473c0.735,0,1.102-0.595,0.82-1.33C499.454,264.34,495.856,260.791,491.759,259.133z
						 M468.067,266.847c-0.178-0.897-0.167-1.747,0.01-2.515c0.06-0.264,0.144-0.514,0.243-0.753
						c0.032-0.077,0.07-0.151,0.107-0.226c0.083-0.173,0.176-0.338,0.28-0.495c0.053-0.08,0.106-0.159,0.164-0.235
						c0.112-0.147,0.236-0.282,0.366-0.413c0.063-0.063,0.121-0.13,0.188-0.189c0.186-0.164,0.388-0.312,0.605-0.445
						c0.021-0.013,0.037-0.029,0.058-0.041l0.911-0.535l0.721-0.422c0.001,0,0.001-0.002,0.002-0.003l4.253-2.495
						c0.364-0.213,0.485-0.656,0.313-1.15c-0.17-0.494-0.604-0.956-1.126-1.203c-3.418-1.614-6.263-5.011-8.012-9.566
						c-2.588-6.743,0.496-9.145,4.246-9.145c3.751,0,8.681,2.402,11.27,9.145c1.748,4.554,1.511,7.951-0.667,9.566
						c-0.333,0.247-0.411,0.711-0.202,1.203c0.208,0.494,0.668,0.935,1.196,1.15l8.538,3.453c2.528,1.022,4.799,3.027,6.101,5.313
						H468.067z"/>
				</g>
				<g>
					<path style="fill:#7733D6;" d="M226.11,306.064c0.275,0.718-0.083,1.299-0.801,1.299c-0.718,0-1.523-0.582-1.798-1.299
						c-0.275-0.718,0.083-1.299,0.801-1.299C225.03,304.765,225.835,305.347,226.11,306.064z"/>
					<path style="fill:#7733D6;" d="M232.891,327.113L232.891,327.113c-0.718,0-1.523-0.582-1.798-1.299l-5.047-13.147
						c-0.275-0.718,0.083-1.299,0.801-1.299l0,0c0.718,0,1.523,0.582,1.798,1.299l5.047,13.147
						C233.967,326.531,233.608,327.113,232.891,327.113z"/>
				</g>
			</g>
			<g>
				<g>
					<path style="fill:#481C95;" d="M639.605,280.266c3.239,61.373-1.43,146.959-1.43,146.959l4.915,5.492h-19.303l0.16-140.168
						c0.001-0.798-0.696-1.418-1.489-1.324l0,0c-0.556,0.066-1.011,0.473-1.139,1.018l-32.384,140.474h-22.127l9.201-5.492
						l30.521-146.367L639.605,280.266z"/>
				</g>
				
					<linearGradient id="SVGID_00000174561608014860897710000014749184122090399375_" gradientUnits="userSpaceOnUse" x1="596.9943" y1="298.879" x2="631.075" y2="237.5339">
					<stop  offset="0" style="stop-color:#FFCE3D"/>
					<stop  offset="1" style="stop-color:#FFEF55"/>
				</linearGradient>
				<path style="fill:url(#SVGID_00000174561608014860897710000014749184122090399375_);" d="M639.144,225.719
					c-1.359-0.935-5.275-1.605-9.368-2.03c-4.077-0.423-19.044,0.024-22.339,0.635c-4.078,0.755-7.102,1.732-9.045,2.53
					c-2.772,1.194-4.799,3.649-5.448,6.596l-2.563,11.656c3.633,3.925,6.916,8.381,8.701,13.265l2.206-12.643l3.788,42.036
					l32.89-7.141l4.308,4.701c0,0,18.474-26.233,18.594-28.154S643.542,228.744,639.144,225.719z M638.873,271.37l-2.266-27.551
					l10.794,13.899L638.873,271.37z"/>
				<g style="opacity:0.2;">
					<path style="fill:#323B72;" d="M608.106,284.517c-0.177,0-0.334-0.125-0.368-0.305c-0.039-0.203,0.094-0.399,0.298-0.439
						l25.667-4.934c0.2-0.041,0.4,0.095,0.439,0.298c0.039,0.203-0.094,0.399-0.298,0.439l-25.667,4.934
						C608.153,284.515,608.129,284.517,608.106,284.517z"/>
				</g>
				<g>
					<path style="fill:#F5BA9A;" d="M632.878,275.76c0,0,5.146-3.011,6.432-1.947c1.286,1.064,1.119,2.895,1.187,3.514
						c0.068,0.619,2.214,1.348,2.45,3.314c0.236,1.967,1.851,3.086,1.763,4.729c-0.088,1.643-2.777,2.392-3.474,2.568
						c-0.697,0.177-1.827-3.343-1.827-3.343s-1.776,0.211-2.14-0.281c-0.364-0.492-1.605-3.416-1.605-3.416
						s-2.234-0.785-2.523-1.176c-0.29-0.39-0.604-1.561-0.604-1.561l1.263-0.78L632.878,275.76z"/>
				</g>
				<path style="fill:#481C95;" d="M621.075,220.445c0,0,1.647-0.354,2.403,0.487c0.755,0.841,1.144,9.109-0.185,9.341
					c-1.228,0.214-5.213-4.337-5.213-4.337s-4.037,5.01-5.319,4.468c-1.18-0.499,0.363-9.775,3.005-9.78
					C618.406,220.618,621.075,220.445,621.075,220.445z"/>
				
					<linearGradient id="SVGID_00000026854029253410467240000012041543780062782106_" gradientUnits="userSpaceOnUse" x1="604.4877" y1="202.3862" x2="606.5027" y2="202.3862">
					<stop  offset="0" style="stop-color:#293267"/>
					<stop  offset="0.999" style="stop-color:#3B467E"/>
				</linearGradient>
				<path style="fill:url(#SVGID_00000026854029253410467240000012041543780062782106_);" d="M604.488,199.758
					c0,0,0.054,4.191,1.695,6.106l0.32-6.956L604.488,199.758z"/>
				<g>
					<path style="fill:#F5BA9A;" d="M618.087,225.285c1.114-0.112,2.064-0.256,2.684-1.281c1.143-1.888,0.524-4.296,1.707-6.143
						c0.554-0.865,1.296-1.592,1.938-2.394c0.997-1.246,1.415-2.753,1.792-4.278c1.698-6.871-0.875-21.295-11.075-19.913
						c-10.2,1.382-9.474,12.846-8.502,18.036c0.377,2.012,0.926,4.147,1.99,5.954c0.544,0.923,1.23,1.781,2.112,2.402
						c0.959,0.675,2.092,0.795,3.096,1.356c1.357,0.758,1.099,2.681,1.249,3.993C615.272,224.71,616.405,225.453,618.087,225.285z"
						/>
				</g>
				<path style="fill:#481C95;" d="M627,204.273c-1.3,0.589-1.871,3.566-1.871,3.566l-1.259-0.398l0.756-5.467
					c0,0-3.454-0.927-3.077-6.035c0,0-2.36,4.445-8.092,3.924l1.63-2.996c0,0-16.847,13.015-19.308,1.974l9.825-3.309
					c0,0-7.049,1.867-9.825-3.251l9.715-1.277l-5.829-1.487c0,0,23.229-5.992,23.985,0.429c0,0,2.216-1.961,4.807,0.884
					c2.089,2.293-0.162,13.119-0.162,13.119L627,204.273z"/>
				<g>
					<path style="fill:#F5BA9A;" d="M625.144,207.107c0.166,1.611,1.606,2.783,3.217,2.617c1.611-0.165,2.783-1.606,2.617-3.217
						c-0.165-1.611-1.605-2.783-3.216-2.617C626.151,204.056,624.979,205.496,625.144,207.107z"/>
				</g>
				<g>
					<path style="fill:#F5BA9A;" d="M602.688,209.081c0.166,1.611,1.606,2.783,3.217,2.617c1.611-0.166,2.783-1.606,2.617-3.217
						c-0.166-1.611-1.606-2.783-3.216-2.617C603.695,206.03,602.523,207.47,602.688,209.081z"/>
				</g>
				<g>
					<path style="fill:#F08F78;" d="M613.458,211.018c-0.139,0-0.266-0.032-0.381-0.108c-0.133-0.089-0.289-0.27-0.279-0.63
						c0.021-0.707,0.435-1.499,0.767-2.136c0.145-0.277,0.281-0.538,0.319-0.676c0.086-0.312,0.047-0.688,0.002-1.016
						c-0.027-0.205,0.117-0.394,0.322-0.421c0.2-0.032,0.394,0.117,0.422,0.322c0.054,0.401,0.101,0.868-0.023,1.316
						c-0.06,0.214-0.199,0.483-0.377,0.823c-0.273,0.524-0.644,1.236-0.68,1.766c0.182-0.041,0.504-0.187,0.712-0.281
						c0.248-0.112,0.497-0.223,0.714-0.29c0.197-0.058,0.408,0.049,0.47,0.247c0.061,0.198-0.05,0.408-0.247,0.47
						c-0.191,0.059-0.41,0.159-0.627,0.257C614.154,210.848,613.777,211.018,613.458,211.018z"/>
				</g>
				<g>
					<path style="fill:#F08F78;" d="M615.115,213.102c-0.222,0-0.443-0.017-0.663-0.053c-0.205-0.032-0.345-0.225-0.312-0.429
						c0.032-0.205,0.232-0.344,0.429-0.311c0.783,0.125,1.593-0.023,2.279-0.416c0.688-0.393,1.227-1.015,1.518-1.753
						c0.075-0.194,0.29-0.288,0.486-0.212c0.192,0.076,0.287,0.294,0.211,0.486c-0.352,0.896-1.007,1.652-1.843,2.129
						C616.579,212.912,615.85,213.102,615.115,213.102z"/>
				</g>
				<g>
					<path style="fill:#F08F78;" d="M606.835,210.695c-0.18,0-0.338-0.128-0.369-0.311l-0.571-3.298
						c-0.036-0.204,0.101-0.398,0.305-0.434c0.221-0.032,0.398,0.103,0.434,0.306l0.571,3.298c0.036,0.204-0.101,0.398-0.305,0.434
						C606.877,210.693,606.856,210.695,606.835,210.695z"/>
				</g>
				<g>
					<path style="fill:#F08F78;" d="M606.403,208.805c-0.034,0-0.069-0.005-0.104-0.015c-0.484-0.14-0.987-0.212-1.494-0.215
						c-0.207-0.001-0.374-0.169-0.373-0.376c0.001-0.206,0.169-0.374,0.375-0.374c0.001,0,0.001,0,0.002,0
						c0.575,0.002,1.147,0.085,1.699,0.244c0.198,0.058,0.314,0.266,0.256,0.464C606.715,208.698,606.566,208.805,606.403,208.805z"
						/>
				</g>
				<g>
					<path style="fill:#F08F78;" d="M626.61,207.933c-0.142,0-0.277-0.081-0.34-0.217c-0.37-0.798-0.072-1.841,0.663-2.324
						c0.735-0.481,1.81-0.342,2.396,0.314c0.138,0.154,0.124,0.392-0.03,0.529c-0.155,0.139-0.391,0.126-0.53-0.03
						c-0.34-0.382-0.992-0.47-1.424-0.186c-0.431,0.283-0.611,0.915-0.395,1.382c0.088,0.188,0.006,0.411-0.183,0.498
						C626.716,207.922,626.662,207.933,626.61,207.933z"/>
				</g>
				<g>
					<path style="fill:#F08F78;" d="M617.082,219.626c-0.328,0-0.656-0.017-0.984-0.051c-0.206-0.021-0.355-0.206-0.334-0.412
						c0.022-0.206,0.196-0.358,0.412-0.335c1.523,0.157,3.068-0.086,4.468-0.706c0.19-0.083,0.412,0.001,0.495,0.191
						c0.084,0.189-0.002,0.411-0.19,0.495C619.73,219.349,618.409,219.626,617.082,219.626z"/>
				</g>
				<g>
					<path style="fill:#30386F;" d="M615.064,202.28c-0.086,0-0.172-0.029-0.242-0.088c-0.158-0.134-0.178-0.37-0.045-0.528
						c0.627-0.743,1.581-1.2,2.553-1.222c0.966-0.017,1.945,0.392,2.604,1.108c0.141,0.152,0.131,0.39-0.022,0.53
						c-0.152,0.14-0.391,0.131-0.529-0.022c-0.516-0.559-1.243-0.887-2.036-0.866c-0.759,0.017-1.506,0.374-1.995,0.955
						C615.277,202.234,615.17,202.28,615.064,202.28z"/>
				</g>
				<g>
					<path style="fill:#30386F;" d="M608,203.807c-0.055,0-0.111-0.012-0.164-0.038c-0.185-0.09-0.264-0.314-0.174-0.501
						c0.411-0.847,1.201-1.489,2.113-1.719c0.911-0.23,1.913-0.037,2.675,0.516c0.168,0.122,0.205,0.356,0.084,0.523
						c-0.121,0.169-0.355,0.207-0.523,0.084c-0.586-0.424-1.352-0.573-2.053-0.395c-0.699,0.176-1.306,0.669-1.62,1.318
						C608.273,203.729,608.139,203.807,608,203.807z"/>
				</g>
				
					<linearGradient id="SVGID_00000063616715772834589740000000149133549223000221_" gradientUnits="userSpaceOnUse" x1="615.5981" y1="205.5535" x2="617.6585" y2="205.5535">
					<stop  offset="0" style="stop-color:#293267"/>
					<stop  offset="0.999" style="stop-color:#3B467E"/>
				</linearGradient>
				<path style="fill:url(#SVGID_00000063616715772834589740000000149133549223000221_);" d="M615.605,205.675
					c0.067,0.565,0.58,0.968,1.145,0.901c0.565-0.067,0.968-0.58,0.901-1.145c-0.067-0.565-0.58-0.968-1.145-0.901
					C615.942,204.598,615.538,205.11,615.605,205.675z"/>
				
					<linearGradient id="SVGID_00000120540400806872548280000007795879281430204302_" gradientUnits="userSpaceOnUse" x1="610.1277" y1="206.4395" x2="612.1881" y2="206.4395">
					<stop  offset="0" style="stop-color:#293267"/>
					<stop  offset="0.999" style="stop-color:#3B467E"/>
				</linearGradient>
				<path style="fill:url(#SVGID_00000120540400806872548280000007795879281430204302_);" d="M610.135,206.561
					c0.067,0.565,0.58,0.968,1.145,0.901c0.565-0.067,0.968-0.58,0.901-1.145c-0.067-0.565-0.58-0.968-1.145-0.901
					C610.471,205.484,610.068,205.996,610.135,206.561z"/>
				<g>
					<path style="fill:#481C95;" d="M599.076,238.526l-18.927,4.11c-1.283,0.279-2.084,1.56-1.773,2.835l6.449,26.441
						c0.301,1.233,1.531,2,2.77,1.727l17.998-3.956c1.249-0.275,2.045-1.503,1.785-2.755l-5.52-26.594
						C601.594,239.063,600.345,238.251,599.076,238.526z"/>
				</g>
				<g>
					<path style="fill:#F5BA9A;" d="M584.779,256.75c0,0-5.202,0.571-5.551,1.994c-0.349,1.423,0.726,2.626,1.002,3.097
						c0.276,0.471-0.855,2.108,0.008,3.618c0.863,1.509,0.31,3.143,1.232,4.255c0.922,1.112,3.208,0.232,3.792-0.008
						c0.584-0.24-0.462-3.311-0.462-3.311s1.362-0.781,1.36-1.318c-0.001-0.537-0.656-3.247-0.656-3.247s1.163-1.722,1.163-2.149
						c0-0.427-0.392-1.416-0.392-1.416l-1.298,0.111L584.779,256.75z"/>
				</g>
			</g>
			<path style="opacity:0.3;fill:#FFFFFF;" d="M447.653,93.157c-1.453,0-2.87,0.15-4.248,0.408
				c-2.252-14.872-15.052-26.282-30.552-26.282c-17.088,0-30.94,13.852-30.94,30.94c0,1.181,0.08,2.341,0.209,3.487
				c-1.156-0.221-2.347-0.347-3.568-0.347c-10.428,0-18.882,8.454-18.882,18.882s8.454,18.882,18.882,18.882h69.099
				c12.695,0,22.986-10.291,22.986-22.986C470.639,103.448,460.348,93.157,447.653,93.157z"/>
			<path style="opacity:0.3;fill:#FFFFFF;" d="M594.159,108.223c-0.721,0-1.423,0.075-2.107,0.202
				c-1.117-7.374-7.464-13.033-15.15-13.033c-8.473,0-15.342,6.869-15.342,15.342c0,0.585,0.04,1.161,0.104,1.729
				c-0.573-0.11-1.164-0.172-1.769-0.172c-5.171,0-9.363,4.192-9.363,9.363s4.192,9.363,9.363,9.363h34.264
				c6.295,0,11.398-5.103,11.398-11.398S600.454,108.223,594.159,108.223z"/>
			<g style="opacity:0.3;">
				<path style="fill:#FFFFFF;" d="M415.156,189.831c-0.276,0-0.5-0.224-0.5-0.5v-2c0-0.276,0.224-0.5,0.5-0.5
					c0.276,0,0.5,0.224,0.5,0.5v2C415.656,189.607,415.432,189.831,415.156,189.831z M415.156,182.831c-0.276,0-0.5-0.224-0.5-0.5
					v-2c0-0.276,0.224-0.5,0.5-0.5c0.276,0,0.5,0.224,0.5,0.5v2C415.656,182.607,415.432,182.831,415.156,182.831z M415.156,175.831
					c-0.276,0-0.5-0.224-0.5-0.5v-2c0-0.276,0.224-0.5,0.5-0.5c0.276,0,0.5,0.224,0.5,0.5v2
					C415.656,175.607,415.432,175.831,415.156,175.831z M415.156,168.831c-0.276,0-0.5-0.224-0.5-0.5v-2c0-0.276,0.224-0.5,0.5-0.5
					c0.276,0,0.5,0.224,0.5,0.5v2C415.656,168.607,415.432,168.831,415.156,168.831z M415.156,161.831c-0.276,0-0.5-0.224-0.5-0.5
					v-2c0-0.276,0.224-0.5,0.5-0.5c0.276,0,0.5,0.224,0.5,0.5v2C415.656,161.607,415.432,161.831,415.156,161.831z M415.156,154.831
					c-0.276,0-0.5-0.224-0.5-0.5v-2c0-0.276,0.224-0.5,0.5-0.5c0.276,0,0.5,0.224,0.5,0.5v2
					C415.656,154.607,415.432,154.831,415.156,154.831z M415.156,147.831c-0.276,0-0.5-0.224-0.5-0.5v-2c0-0.276,0.224-0.5,0.5-0.5
					c0.276,0,0.5,0.224,0.5,0.5v2C415.656,147.607,415.432,147.831,415.156,147.831z"/>
			</g>
			<g style="opacity:0.3;">
				<path style="fill:#FFFFFF;" d="M539.791,123.034h-2c-0.276,0-0.5-0.224-0.5-0.5c0-0.276,0.224-0.5,0.5-0.5h2
					c0.276,0,0.5,0.224,0.5,0.5C540.291,122.811,540.068,123.034,539.791,123.034z M532.791,123.034h-2c-0.276,0-0.5-0.224-0.5-0.5
					c0-0.276,0.224-0.5,0.5-0.5h2c0.276,0,0.5,0.224,0.5,0.5C533.291,122.811,533.068,123.034,532.791,123.034z M525.791,123.034h-2
					c-0.276,0-0.5-0.224-0.5-0.5c0-0.276,0.224-0.5,0.5-0.5h2c0.276,0,0.5,0.224,0.5,0.5
					C526.291,122.811,526.068,123.034,525.791,123.034z M518.791,123.034h-2c-0.276,0-0.5-0.224-0.5-0.5c0-0.276,0.224-0.5,0.5-0.5
					h2c0.276,0,0.5,0.224,0.5,0.5C519.291,122.811,519.068,123.034,518.791,123.034z M511.791,123.034h-2
					c-0.276,0-0.5-0.224-0.5-0.5c0-0.276,0.224-0.5,0.5-0.5h2c0.276,0,0.5,0.224,0.5,0.5
					C512.291,122.811,512.068,123.034,511.791,123.034z M504.791,123.034h-2c-0.276,0-0.5-0.224-0.5-0.5c0-0.276,0.224-0.5,0.5-0.5
					h2c0.276,0,0.5,0.224,0.5,0.5C505.291,122.811,505.068,123.034,504.791,123.034z M497.791,123.034h-2
					c-0.276,0-0.5-0.224-0.5-0.5c0-0.276,0.224-0.5,0.5-0.5h2c0.276,0,0.5,0.224,0.5,0.5
					C498.291,122.811,498.068,123.034,497.791,123.034z M490.791,123.034h-2c-0.276,0-0.5-0.224-0.5-0.5c0-0.276,0.224-0.5,0.5-0.5
					h2c0.276,0,0.5,0.224,0.5,0.5C491.291,122.811,491.068,123.034,490.791,123.034z M483.791,123.034h-2
					c-0.276,0-0.5-0.224-0.5-0.5c0-0.276,0.224-0.5,0.5-0.5h2c0.276,0,0.5,0.224,0.5,0.5
					C484.291,122.811,484.068,123.034,483.791,123.034z"/>
			</g>
			<g>
				<g>
					
						<linearGradient id="SVGID_00000078009816219832030190000009698328332591788173_" gradientUnits="userSpaceOnUse" x1="252.7776" y1="425.5428" x2="496.7101" y2="425.5428">
						<stop  offset="0" style="stop-color:#FFCE3D"/>
						<stop  offset="1" style="stop-color:#FFEF55"/>
					</linearGradient>
					
						<rect x="252.778" y="418.368" style="fill:url(#SVGID_00000078009816219832030190000009698328332591788173_);" width="243.933" height="14.349"/>
					<rect x="252.778" y="404.019" style="fill:#FFF29F;" width="243.933" height="14.349"/>
				</g>
				
					<linearGradient id="SVGID_00000150086856910500769300000012980079259362976934_" gradientUnits="userSpaceOnUse" x1="252.7776" y1="396.8449" x2="496.7101" y2="396.8449">
					<stop  offset="0" style="stop-color:#FFCE3D"/>
					<stop  offset="1" style="stop-color:#FFEF55"/>
				</linearGradient>
				
					<rect x="252.778" y="389.67" style="fill:url(#SVGID_00000150086856910500769300000012980079259362976934_);" width="243.933" height="14.349"/>
				<path style="fill:#FFFFFF;" d="M496.677,389.637c-3.962,0-7.175,3.212-7.175,7.174s3.212,7.174,7.175,7.174
					c-3.962,0-7.175,3.212-7.175,7.174s3.212,7.175,7.175,7.175c-3.962,0-7.175,3.212-7.175,7.174c0,3.962,3.212,7.174,7.175,7.174
					c-0.033-0.034,57.933-21.49,57.933-21.49L496.677,389.637z"/>
				
					<linearGradient id="SVGID_00000072991270043443642230000007355710179997948598_" gradientUnits="userSpaceOnUse" x1="543.9974" y1="419.9394" x2="552.5324" y2="402.8695">
					<stop  offset="0" style="stop-color:#481C95"/>
					<stop  offset="1" style="stop-color:#7733D6"/>
				</linearGradient>
				<path style="fill:url(#SVGID_00000072991270043443642230000007355710179997948598_);" d="M544.088,415.089
					c6.229-2.306,10.522-3.895,10.522-3.895l-10.522-3.915V415.089z"/>
				<rect x="242.609" y="389.67" style="fill:#FFFFFF;" width="10.168" height="43.014"/>
				
					<linearGradient id="SVGID_00000112601030572062774310000004645901277032499126_" gradientUnits="userSpaceOnUse" x1="195.5183" y1="411.1772" x2="242.6091" y2="411.1772">
					<stop  offset="0" style="stop-color:#481C95"/>
					<stop  offset="1" style="stop-color:#7733D6"/>
				</linearGradient>
				<path style="fill:url(#SVGID_00000112601030572062774310000004645901277032499126_);" d="M217.025,432.684h25.584V389.67
					h-25.584c-11.878,0-21.507,9.629-21.507,21.507v0C195.518,423.055,205.147,432.684,217.025,432.684z"/>
			</g>
			<g>
				<polygon style="fill:#DEC3F7;" points="276.474,143.462 314.171,107.061 275.59,133.66 				"/>
				<g>
					<polygon style="fill:#FFFFFF;" points="271.866,131.16 314.171,107.061 259.745,123.025 					"/>
					<polygon style="fill:#FFFFFF;" points="275.59,133.66 288.975,142.644 314.171,107.061 					"/>
				</g>
				<polygon style="fill:#E6D1F9;" points="271.866,131.16 276.474,143.462 275.59,133.66 314.171,107.061 				"/>
			</g>
			<g style="opacity:0.3;">
				<path style="fill:#FFFFFF;" d="M102.822,271.383c-0.135,0-0.27-0.055-0.368-0.162c-0.448-0.487-0.886-0.982-1.313-1.486
					c-0.178-0.211-0.152-0.526,0.059-0.705c0.21-0.177,0.525-0.152,0.705,0.059c0.418,0.494,0.848,0.98,1.286,1.457
					c0.187,0.203,0.174,0.52-0.03,0.706C103.064,271.339,102.943,271.383,102.822,271.383z M98.485,265.943
					c-0.158,0-0.314-0.075-0.411-0.216c-0.383-0.555-0.755-1.116-1.115-1.686c-0.147-0.233-0.078-0.543,0.155-0.69
					c0.231-0.146,0.541-0.079,0.69,0.155c0.352,0.558,0.717,1.109,1.092,1.652c0.157,0.227,0.101,0.539-0.127,0.695
					C98.682,265.915,98.583,265.943,98.485,265.943z M94.913,259.93c-0.182,0-0.358-0.101-0.446-0.274
					c-0.305-0.601-0.598-1.207-0.878-1.818c-0.115-0.251-0.006-0.548,0.245-0.663c0.248-0.117,0.548-0.006,0.663,0.245
					c0.275,0.6,0.563,1.194,0.862,1.785c0.125,0.246,0.026,0.547-0.221,0.672C95.067,259.912,94.989,259.93,94.913,259.93z
					 M92.169,253.495c-0.206,0-0.399-0.129-0.472-0.334c-0.224-0.636-0.435-1.274-0.634-1.917c-0.082-0.264,0.065-0.544,0.329-0.626
					c0.27-0.08,0.544,0.066,0.626,0.33c0.195,0.63,0.402,1.257,0.622,1.881c0.092,0.261-0.045,0.546-0.306,0.638
					C92.281,253.486,92.224,253.495,92.169,253.495z M90.282,246.757c-0.23,0-0.438-0.161-0.488-0.397
					c-0.139-0.658-0.266-1.319-0.381-1.982c-0.047-0.272,0.136-0.531,0.408-0.578c0.268-0.045,0.531,0.135,0.578,0.408
					c0.111,0.65,0.236,1.299,0.373,1.946c0.057,0.27-0.116,0.535-0.386,0.592C90.352,246.754,90.318,246.757,90.282,246.757z
					 M89.288,239.833c-0.259,0-0.478-0.2-0.498-0.462c-0.051-0.67-0.09-1.342-0.117-2.014c-0.011-0.276,0.204-0.509,0.48-0.52
					c0.304-0.029,0.509,0.205,0.52,0.479c0.025,0.66,0.064,1.319,0.115,1.978c0.021,0.275-0.186,0.516-0.461,0.537
					C89.315,239.833,89.302,239.833,89.288,239.833z M89.218,232.84c-0.01,0-0.02,0-0.029-0.001
					c-0.275-0.016-0.486-0.253-0.47-0.528c0.039-0.672,0.092-1.343,0.156-2.013c0.027-0.275,0.29-0.475,0.546-0.449
					c0.275,0.026,0.477,0.271,0.45,0.546c-0.065,0.657-0.115,1.316-0.154,1.975C89.701,232.635,89.482,232.84,89.218,232.84z
					 M90.108,225.902c-0.035,0-0.071-0.003-0.106-0.011c-0.271-0.059-0.441-0.325-0.383-0.594l0.031-0.154
					c0.122-0.608,0.258-1.211,0.404-1.811c0.065-0.268,0.334-0.433,0.603-0.368c0.269,0.065,0.433,0.336,0.367,0.604
					c-0.143,0.587-0.274,1.177-0.395,1.77l-0.035,0.17C90.545,225.742,90.337,225.902,90.108,225.902z M91.965,219.159
					c-0.056,0-0.111-0.009-0.166-0.028c-0.261-0.092-0.397-0.378-0.306-0.638c0.224-0.634,0.46-1.265,0.708-1.891
					c0.103-0.257,0.394-0.382,0.649-0.28c0.257,0.102,0.382,0.393,0.28,0.649c-0.244,0.614-0.475,1.232-0.694,1.854
					C92.364,219.031,92.171,219.159,91.965,219.159z M94.731,212.735c-0.077,0-0.155-0.018-0.228-0.055
					c-0.246-0.126-0.344-0.427-0.218-0.673c0.307-0.599,0.625-1.192,0.954-1.779c0.135-0.241,0.44-0.327,0.681-0.191
					c0.241,0.135,0.327,0.44,0.192,0.681c-0.323,0.576-0.636,1.158-0.937,1.746C95.087,212.636,94.912,212.735,94.731,212.735z
					 M98.323,206.733c-0.099,0-0.197-0.029-0.284-0.089c-0.228-0.157-0.284-0.468-0.127-0.695c0.382-0.553,0.775-1.1,1.179-1.639
					c0.165-0.221,0.48-0.267,0.7-0.101c0.221,0.165,0.266,0.479,0.101,0.7c-0.396,0.529-0.781,1.066-1.157,1.608
					C98.637,206.658,98.481,206.733,98.323,206.733z M102.665,201.249c-0.12,0-0.239-0.042-0.335-0.129
					c-0.205-0.186-0.221-0.501-0.036-0.706c0.451-0.499,0.912-0.99,1.381-1.472c0.192-0.198,0.511-0.202,0.707-0.01
					c0.198,0.193,0.202,0.509,0.01,0.707c-0.461,0.473-0.912,0.955-1.356,1.445C102.938,201.193,102.802,201.249,102.665,201.249z
					 M107.683,196.375c-0.142,0-0.282-0.06-0.381-0.176c-0.179-0.21-0.153-0.526,0.058-0.705c0.513-0.436,1.033-0.862,1.562-1.279
					c0.216-0.171,0.53-0.135,0.702,0.083c0.171,0.217,0.134,0.531-0.083,0.702c-0.519,0.409-1.029,0.828-1.534,1.255
					C107.912,196.336,107.797,196.375,107.683,196.375z M113.3,192.208c-0.164,0-0.325-0.081-0.421-0.23
					c-0.149-0.232-0.082-0.542,0.15-0.691c0.566-0.363,1.141-0.716,1.722-1.057c0.234-0.14,0.543-0.061,0.684,0.178
					c0.141,0.238,0.06,0.544-0.178,0.685c-0.569,0.335-1.132,0.68-1.687,1.037C113.487,192.183,113.393,192.208,113.3,192.208z
					 M119.435,188.849c-0.19,0-0.371-0.108-0.455-0.292c-0.114-0.251-0.004-0.548,0.247-0.663l0.274-0.125
					c0.522-0.236,1.048-0.463,1.576-0.682c0.256-0.105,0.548,0.016,0.653,0.27c0.105,0.255-0.016,0.548-0.271,0.653
					c-0.519,0.215-1.034,0.438-1.548,0.669l-0.269,0.123C119.575,188.834,119.505,188.849,119.435,188.849z M125.96,186.343
					c-0.212,0-0.409-0.136-0.477-0.349c-0.084-0.263,0.063-0.544,0.325-0.628c0.64-0.203,1.284-0.395,1.931-0.578
					c0.265-0.075,0.542,0.08,0.617,0.345c0.075,0.266-0.08,0.542-0.346,0.617c-0.637,0.18-1.27,0.369-1.899,0.569
					C126.061,186.335,126.01,186.343,125.96,186.343z M132.729,184.581c-0.231,0-0.439-0.162-0.488-0.397
					c-0.057-0.27,0.116-0.535,0.387-0.592c0.657-0.138,1.316-0.268,1.979-0.389c0.275-0.054,0.532,0.129,0.583,0.401
					c0.05,0.271-0.13,0.532-0.401,0.582c-0.654,0.121-1.306,0.249-1.955,0.384C132.798,184.578,132.763,184.581,132.729,184.581z
					 M139.637,183.419c-0.247,0-0.462-0.183-0.495-0.435c-0.035-0.273,0.157-0.525,0.431-0.561c0.665-0.087,1.331-0.169,1.999-0.246
					c0.265-0.038,0.521,0.165,0.554,0.439c0.031,0.274-0.166,0.522-0.44,0.554c-0.662,0.076-1.322,0.157-1.981,0.244
					C139.681,183.417,139.659,183.419,139.637,183.419z M146.608,182.695c-0.258,0-0.477-0.198-0.497-0.46
					c-0.022-0.275,0.183-0.517,0.458-0.539c0.668-0.053,1.336-0.103,2.004-0.149c0.283-0.018,0.515,0.188,0.534,0.464
					c0.019,0.275-0.188,0.514-0.464,0.534c-0.666,0.046-1.33,0.095-1.994,0.148C146.635,182.695,146.621,182.695,146.608,182.695z
					 M153.601,182.252c-0.265,0-0.486-0.208-0.499-0.475c-0.015-0.276,0.198-0.511,0.474-0.525l2.002-0.096
					c0.269-0.02,0.511,0.201,0.523,0.477c0.013,0.276-0.2,0.51-0.476,0.523l-1.998,0.096
					C153.617,182.252,153.609,182.252,153.601,182.252z M160.598,181.941c-0.267,0-0.488-0.21-0.5-0.479
					c-0.011-0.276,0.203-0.509,0.479-0.521l1.997-0.084c0.269-0.021,0.51,0.202,0.522,0.478c0.012,0.276-0.202,0.509-0.479,0.521
					l-1.999,0.085C160.612,181.941,160.605,181.941,160.598,181.941z M167.59,181.619c-0.265,0-0.485-0.207-0.499-0.473
					c-0.015-0.276,0.196-0.511,0.473-0.526c0.664-0.035,1.327-0.073,1.989-0.114c0.27-0.018,0.513,0.193,0.529,0.469
					c0.017,0.275-0.193,0.513-0.469,0.529c-0.664,0.04-1.329,0.079-1.997,0.115C167.608,181.619,167.599,181.619,167.59,181.619z
					 M174.57,181.138c-0.256,0-0.475-0.196-0.497-0.456c-0.025-0.275,0.179-0.518,0.454-0.542c0.663-0.059,1.324-0.121,1.984-0.188
					c0.266-0.022,0.52,0.172,0.548,0.447c0.028,0.275-0.172,0.52-0.446,0.548c-0.664,0.067-1.331,0.13-1.998,0.189
					C174.6,181.138,174.584,181.138,174.57,181.138z M181.524,180.34c-0.244,0-0.457-0.179-0.494-0.428
					c-0.04-0.273,0.149-0.527,0.423-0.567c0.657-0.096,1.313-0.199,1.965-0.308c0.277-0.049,0.53,0.138,0.576,0.411
					c0.046,0.273-0.139,0.53-0.41,0.576c-0.66,0.11-1.321,0.214-1.986,0.311C181.573,180.339,181.548,180.34,181.524,180.34z
					 M188.402,179.054c-0.228,0-0.433-0.156-0.487-0.386c-0.063-0.269,0.104-0.538,0.374-0.601c0.646-0.151,1.287-0.311,1.926-0.479
					c0.271-0.07,0.541,0.089,0.611,0.356c0.07,0.267-0.089,0.541-0.355,0.611c-0.648,0.171-1.3,0.333-1.955,0.486
					C188.477,179.05,188.439,179.054,188.402,179.054z M195.115,177.101c-0.206,0-0.398-0.128-0.472-0.333
					c-0.092-0.26,0.044-0.546,0.305-0.638c0.622-0.221,1.239-0.453,1.852-0.696c0.256-0.104,0.547,0.023,0.649,0.279
					c0.102,0.257-0.023,0.547-0.28,0.649c-0.624,0.248-1.253,0.485-1.887,0.71C195.228,177.092,195.171,177.101,195.115,177.101z
					 M201.526,174.324c-0.181,0-0.355-0.098-0.443-0.27c-0.128-0.245-0.032-0.547,0.213-0.674c0.584-0.303,1.161-0.619,1.733-0.949
					c0.239-0.139,0.545-0.056,0.684,0.184c0.138,0.239,0.056,0.545-0.184,0.683c-0.586,0.337-1.177,0.661-1.773,0.97
					C201.683,174.306,201.604,174.324,201.526,174.324z M216.462,171.465c-0.006,0-0.012,0-0.018-0.001
					c-0.677-0.023-1.352-0.065-2.023-0.126c-0.274-0.025-0.478-0.269-0.452-0.543c0.024-0.276,0.272-0.473,0.544-0.453
					c0.652,0.06,1.31,0.1,1.967,0.124c0.276,0.009,0.492,0.241,0.482,0.517C216.952,171.253,216.731,171.465,216.462,171.465z
					 M221.457,171.335c-0.257,0-0.476-0.198-0.497-0.46c-0.023-0.275,0.183-0.517,0.457-0.539c0.657-0.053,1.313-0.122,1.969-0.203
					c0.265-0.04,0.523,0.161,0.558,0.435c0.034,0.274-0.16,0.524-0.434,0.558c-0.669,0.083-1.339,0.153-2.01,0.208
					C221.485,171.335,221.471,171.335,221.457,171.335z M207.459,170.638c-0.152,0-0.304-0.07-0.401-0.202
					c-0.165-0.222-0.118-0.535,0.104-0.7c0.01-0.008,0.021-0.016,0.031-0.023c-0.073-0.121-0.095-0.271-0.047-0.416
					c0.086-0.263,0.364-0.409,0.632-0.318c0.086,0.028,0.174,0.057,0.261,0.084c0.227-0.179,0.452-0.361,0.675-0.546
					c0.213-0.175,0.528-0.147,0.704,0.065c0.177,0.212,0.147,0.528-0.065,0.704c-0.049,0.041-0.098,0.081-0.146,0.121
					c0.152,0.041,0.305,0.081,0.457,0.12c0.269,0.068,0.431,0.34,0.362,0.607c-0.066,0.267-0.338,0.428-0.606,0.362
					c-0.395-0.1-0.789-0.208-1.177-0.324c-0.16,0.124-0.322,0.245-0.484,0.366C207.668,170.605,207.564,170.638,207.459,170.638z
					 M228.374,170.294c-0.23,0-0.439-0.161-0.488-0.396c-0.057-0.271,0.116-0.536,0.386-0.593c0.319-0.067,0.637-0.138,0.953-0.21
					c0.328-0.075,0.656-0.151,0.982-0.231c0.273-0.066,0.54,0.1,0.604,0.368c0.066,0.268-0.099,0.539-0.367,0.604
					c-0.332,0.081-0.664,0.159-0.997,0.234c-0.321,0.073-0.645,0.145-0.968,0.213C228.444,170.29,228.409,170.294,228.374,170.294z
					 M235.14,168.505c-0.212,0-0.409-0.136-0.477-0.349c-0.083-0.263,0.063-0.545,0.326-0.628c0.631-0.2,1.26-0.409,1.885-0.626
					c0.262-0.09,0.546,0.047,0.637,0.309c0.09,0.261-0.048,0.545-0.309,0.636c-0.635,0.22-1.271,0.431-1.912,0.633
					C235.24,168.498,235.19,168.505,235.14,168.505z M203.061,167.926c-0.086,0-0.172-0.021-0.251-0.067
					c-0.59-0.342-1.169-0.711-1.721-1.098c-0.227-0.158-0.282-0.47-0.124-0.696c0.159-0.227,0.472-0.28,0.696-0.123
					c0.53,0.37,1.085,0.724,1.65,1.052c0.238,0.139,0.32,0.444,0.182,0.684C203.401,167.837,203.233,167.926,203.061,167.926z
					 M241.703,166.081c-0.194,0-0.38-0.114-0.461-0.305c-0.107-0.254,0.012-0.548,0.267-0.655c0.609-0.258,1.216-0.524,1.818-0.799
					c0.252-0.114,0.548-0.003,0.662,0.248c0.114,0.251,0.004,0.548-0.248,0.663c-0.61,0.278-1.225,0.548-1.844,0.81
					C241.834,166.068,241.769,166.081,241.703,166.081z M212.628,165.934c-0.118,0-0.236-0.041-0.332-0.125
					c-0.206-0.184-0.226-0.5-0.042-0.706c0.44-0.498,0.862-1.007,1.252-1.514c0.169-0.22,0.482-0.26,0.701-0.092
					c0.219,0.169,0.26,0.482,0.092,0.701c-0.404,0.525-0.841,1.053-1.297,1.568C212.904,165.876,212.766,165.934,212.628,165.934z
					 M197.612,163.571c-0.135,0-0.27-0.054-0.368-0.161c-0.464-0.504-0.906-1.032-1.315-1.567c-0.168-0.219-0.125-0.533,0.094-0.701
					c0.22-0.167,0.532-0.126,0.701,0.094c0.391,0.511,0.813,1.015,1.257,1.496c0.186,0.203,0.174,0.52-0.029,0.707
					C197.854,163.527,197.733,163.571,197.612,163.571z M248.013,163.055c-0.178,0-0.351-0.095-0.44-0.263
					c-0.131-0.243-0.039-0.546,0.204-0.677c0.583-0.314,1.162-0.635,1.736-0.964c0.239-0.137,0.546-0.056,0.683,0.185
					c0.138,0.239,0.055,0.545-0.185,0.682c-0.582,0.334-1.169,0.66-1.762,0.978C248.174,163.036,248.093,163.055,248.013,163.055z
					 M216.55,160.162c-0.074,0-0.149-0.016-0.22-0.051c-0.248-0.121-0.351-0.421-0.23-0.669c0.288-0.588,0.55-1.19,0.776-1.79
					c0.098-0.258,0.383-0.389,0.645-0.291c0.259,0.098,0.389,0.386,0.291,0.645c-0.238,0.629-0.512,1.261-0.813,1.877
					C216.912,160.06,216.735,160.162,216.55,160.162z M254.014,159.456c-0.162,0-0.32-0.079-0.417-0.224
					c-0.152-0.23-0.089-0.54,0.141-0.693c0.553-0.366,1.099-0.74,1.64-1.121c0.227-0.158,0.538-0.106,0.697,0.121
					c0.158,0.226,0.105,0.538-0.121,0.697c-0.549,0.387-1.102,0.766-1.663,1.137C254.205,159.429,254.11,159.456,254.014,159.456z
					 M193.818,157.73c-0.195,0-0.382-0.116-0.462-0.308c-0.266-0.637-0.494-1.29-0.681-1.94c-0.076-0.266,0.077-0.542,0.343-0.618
					c0.267-0.077,0.543,0.078,0.618,0.343c0.176,0.613,0.393,1.229,0.644,1.831c0.105,0.255-0.015,0.547-0.27,0.654
					C193.948,157.717,193.882,157.73,193.818,157.73z M259.655,155.315c-0.146,0-0.29-0.063-0.389-0.186
					c-0.174-0.215-0.141-0.529,0.074-0.703c0.515-0.417,1.024-0.84,1.527-1.27c0.211-0.178,0.526-0.155,0.705,0.055
					c0.18,0.21,0.155,0.525-0.055,0.705c-0.511,0.436-1.026,0.865-1.549,1.288C259.876,155.278,259.765,155.315,259.655,155.315z
					 M218.504,153.48c-0.018,0-0.034-0.001-0.051-0.003c-0.275-0.028-0.476-0.273-0.447-0.547c0.047-0.468,0.07-0.944,0.07-1.417
					c0-0.171-0.003-0.342-0.009-0.513c-0.009-0.276,0.207-0.507,0.483-0.516c0.316-0.03,0.507,0.208,0.517,0.483
					c0.006,0.182,0.009,0.365,0.009,0.546c0,0.506-0.025,1.017-0.076,1.517C218.975,153.288,218.757,153.48,218.504,153.48z
					 M192.541,150.904c-0.007,0-0.015,0-0.022-0.001c-0.276-0.013-0.489-0.247-0.477-0.522c0.03-0.679,0.114-1.371,0.25-2.057
					c0.053-0.271,0.318-0.449,0.587-0.394c0.27,0.054,0.447,0.316,0.394,0.587c-0.125,0.637-0.203,1.279-0.232,1.909
					C193.029,150.695,192.807,150.904,192.541,150.904z M264.88,150.661c-0.13,0-0.259-0.05-0.357-0.15
					c-0.193-0.197-0.189-0.514,0.008-0.708c0.473-0.463,0.939-0.933,1.399-1.409c0.191-0.197,0.508-0.205,0.707-0.013
					c0.198,0.192,0.204,0.508,0.012,0.707c-0.466,0.483-0.938,0.959-1.419,1.43C265.133,150.614,265.006,150.661,264.88,150.661z
					 M217.624,146.591c-0.206,0-0.398-0.127-0.471-0.332c-0.216-0.605-0.471-1.206-0.758-1.784c-0.123-0.247-0.023-0.547,0.225-0.67
					c0.245-0.123,0.548-0.023,0.67,0.225c0.306,0.614,0.576,1.252,0.805,1.895c0.093,0.26-0.043,0.546-0.303,0.639
					C217.737,146.582,217.68,146.591,217.624,146.591z M194.566,144.275c-0.086,0-0.174-0.022-0.253-0.069
					c-0.238-0.14-0.318-0.446-0.179-0.684c0.347-0.591,0.735-1.167,1.153-1.71c0.169-0.22,0.482-0.26,0.701-0.091
					c0.219,0.168,0.26,0.482,0.092,0.701c-0.394,0.51-0.758,1.05-1.083,1.605C194.904,144.186,194.737,144.275,194.566,144.275z
					 M213.945,140.705c-0.128,0-0.255-0.048-0.353-0.146c-0.46-0.457-0.951-0.876-1.46-1.248c-0.223-0.163-0.271-0.476-0.109-0.699
					c0.164-0.223,0.477-0.271,0.699-0.109c0.55,0.401,1.079,0.854,1.575,1.347c0.195,0.194,0.196,0.511,0.002,0.707
					C214.201,140.655,214.073,140.705,213.945,140.705z M199.323,139.22c-0.162,0-0.322-0.079-0.418-0.226
					c-0.151-0.231-0.087-0.54,0.144-0.692c0.587-0.385,1.197-0.724,1.814-1.006c0.247-0.114,0.548-0.005,0.663,0.247
					c0.114,0.251,0.004,0.548-0.247,0.663c-0.571,0.261-1.138,0.575-1.682,0.933C199.512,139.194,199.417,139.22,199.323,139.22z
					 M207.9,137.391c-0.033,0-0.065-0.003-0.099-0.01c-0.166-0.033-0.334-0.063-0.503-0.087c-0.459-0.068-0.927-0.105-1.391-0.109
					c-0.275-0.003-0.498-0.229-0.495-0.504c0.003-0.275,0.226-0.496,0.5-0.496c0.001,0,0.003,0,0.005,0
					c0.509,0.005,1.023,0.045,1.528,0.12c0.186,0.028,0.369,0.06,0.551,0.096c0.27,0.054,0.446,0.317,0.393,0.588
					C208.342,137.226,208.133,137.391,207.9,137.391z"/>
			</g>
			<path style="opacity:0.4;fill:#8F50F2;" d="M436.909,167.573c0,1.58-0.961,2.939-2.328,3.527v10.412
				c0,0.835-0.677,1.512-1.512,1.512c-0.836,0-1.512-0.677-1.512-1.512v-10.412c-1.367-0.589-2.328-1.947-2.328-3.527
				c0-1.58,0.961-2.939,2.328-3.527v-3.332c0-0.835,0.677-1.512,1.512-1.512c0.835,0,1.512,0.677,1.512,1.512v3.332
				C435.948,164.635,436.909,165.993,436.909,167.573z M442.715,172.211v-11.498c0-0.835-0.677-1.512-1.512-1.512
				s-1.512,0.677-1.512,1.512v11.498c-1.367,0.589-2.328,1.947-2.328,3.527s0.961,2.939,2.328,3.527v2.246
				c0,0.835,0.677,1.512,1.512,1.512s1.512-0.677,1.512-1.512v-2.246c1.367-0.589,2.328-1.947,2.328-3.527
				S444.082,172.8,442.715,172.211z M453.177,171.616c0-1.58-0.961-2.939-2.328-3.527v-7.375c0-0.835-0.677-1.512-1.512-1.512
				c-0.835,0-1.512,0.677-1.512,1.512v7.375c-1.367,0.589-2.328,1.947-2.328,3.527c0,1.58,0.961,2.939,2.328,3.527v6.369
				c0,0.835,0.677,1.512,1.512,1.512c0.836,0,1.512-0.677,1.512-1.512v-6.369C452.216,174.555,453.177,173.196,453.177,171.616z"/>
			<path style="opacity:0.4;fill:#8F50F2;" d="M162.117,135.563h-9.154c-0.015,0-0.028,0.008-0.043,0.009
				c-0.069,0.004-0.136,0.017-0.202,0.041c-0.023,0.008-0.045,0.014-0.067,0.024c-0.077,0.036-0.149,0.081-0.211,0.142
				c-0.001,0.001-0.003,0.002-0.004,0.003l-5.002,5.003c-0.001,0.001-0.002,0.002-0.003,0.003c-0.062,0.062-0.107,0.134-0.142,0.211
				c-0.011,0.023-0.017,0.046-0.025,0.07c-0.022,0.064-0.035,0.129-0.04,0.196c-0.001,0.016-0.009,0.03-0.009,0.046v15.436
				c0,0.411,0.333,0.744,0.744,0.744h14.157c0.411,0,0.744-0.333,0.744-0.744v-20.44
				C162.861,135.896,162.528,135.563,162.117,135.563z M152.219,138.103v2.464h-2.463L152.219,138.103z M161.373,156.003h-12.669
				v-13.949h4.259c0.411,0,0.744-0.333,0.744-0.744v-4.26h7.666V156.003z"/>
			<path style="opacity:0.4;fill:#8F50F2;" d="M116.363,417.323c0,0.397-0.321,0.719-0.719,0.719h-2.807h-2.363h-3.189h-2.362
				h-3.189h-2.363h-2.807c-0.397,0-0.719-0.321-0.719-0.719v-16.08c0-0.397,0.322-0.719,0.719-0.719
				c0.397,0,0.719,0.322,0.719,0.719v15.362h1.37v-8.164c0-0.397,0.322-0.719,0.719-0.719h2.363c0.397,0,0.719,0.322,0.719,0.719
				v8.164h1.752v-4.863c0-0.397,0.322-0.719,0.719-0.719h2.362c0.397,0,0.719,0.322,0.719,0.719v4.863h1.751v-9.814
				c0-0.397,0.322-0.719,0.719-0.719h2.363c0.397,0,0.719,0.322,0.719,0.719v9.814h2.088
				C116.042,416.604,116.363,416.926,116.363,417.323z"/>
			<g>
				<g>
					
						<linearGradient id="SVGID_00000029047311614714875440000008994950742952365706_" gradientUnits="userSpaceOnUse" x1="256.5815" y1="366.1786" x2="256.5815" y2="391.0577">
						<stop  offset="0" style="stop-color:#481C95"/>
						<stop  offset="1" style="stop-color:#7733D6"/>
					</linearGradient>
					
						<rect x="223.742" y="349.368" style="fill:url(#SVGID_00000029047311614714875440000008994950742952365706_);" width="65.679" height="40.302"/>
					
						<linearGradient id="SVGID_00000150822297217685517390000010968470027432308393_" gradientUnits="userSpaceOnUse" x1="256.2049" y1="323.5036" x2="256.2049" y2="361.0107">
						<stop  offset="0" style="stop-color:#481C95"/>
						<stop  offset="1" style="stop-color:#7733D6"/>
					</linearGradient>
					<polygon style="fill:url(#SVGID_00000150822297217685517390000010968470027432308393_);" points="256.205,329.067 
						192.587,349.368 256.205,369.669 319.823,349.368 					"/>
				</g>
				<g>
					
						<linearGradient id="SVGID_00000137093352294772226620000011708742916803589760_" gradientUnits="userSpaceOnUse" x1="242.6525" y1="343.9678" x2="216.5733" y2="367.6761">
						<stop  offset="0" style="stop-color:#FFCE3D"/>
						<stop  offset="1" style="stop-color:#FFEF89"/>
					</linearGradient>
					<path style="fill:url(#SVGID_00000137093352294772226620000011708742916803589760_);" d="M214.379,374.048
						c-0.6,0-1.086-0.486-1.086-1.086v-16.641c0-0.49,0.329-0.92,0.802-1.048l41.826-11.326c0.58-0.153,1.174,0.186,1.331,0.764
						c0.156,0.578-0.185,1.174-0.764,1.331l-41.024,11.108v15.81C215.465,373.562,214.979,374.048,214.379,374.048z"/>
				</g>
				<g>
					
						<linearGradient id="SVGID_00000000209016228473954480000002045260963933521555_" gradientUnits="userSpaceOnUse" x1="247.0056" y1="348.7559" x2="220.9263" y2="372.4644">
						<stop  offset="0" style="stop-color:#FFCE3D"/>
						<stop  offset="1" style="stop-color:#FFEF89"/>
					</linearGradient>
					<path style="fill:url(#SVGID_00000000209016228473954480000002045260963933521555_);" d="M216.917,384.267h-4.882V373.47
						c0-1.348,1.093-2.441,2.441-2.441l0,0c1.348,0,2.441,1.093,2.441,2.441V384.267z"/>
				</g>
			</g>
			<g style="opacity:0.3;">
				<path style="fill:#FFFFFF;" d="M577.561,219.761c-0.276,0-0.5-0.224-0.5-0.5v-2c0-0.276,0.224-0.5,0.5-0.5
					c0.276,0,0.5,0.224,0.5,0.5v2C578.061,219.538,577.837,219.761,577.561,219.761z M577.561,212.761c-0.276,0-0.5-0.224-0.5-0.5
					v-2c0-0.276,0.224-0.5,0.5-0.5c0.276,0,0.5,0.224,0.5,0.5v2C578.061,212.538,577.837,212.761,577.561,212.761z M577.561,205.761
					c-0.276,0-0.5-0.224-0.5-0.5v-2c0-0.276,0.224-0.5,0.5-0.5c0.276,0,0.5,0.224,0.5,0.5v2
					C578.061,205.538,577.837,205.761,577.561,205.761z M577.561,198.761c-0.276,0-0.5-0.224-0.5-0.5v-2c0-0.276,0.224-0.5,0.5-0.5
					c0.276,0,0.5,0.224,0.5,0.5v2C578.061,198.538,577.837,198.761,577.561,198.761z M577.561,191.761c-0.276,0-0.5-0.224-0.5-0.5
					v-2c0-0.276,0.224-0.5,0.5-0.5c0.276,0,0.5,0.224,0.5,0.5v2C578.061,191.538,577.837,191.761,577.561,191.761z M577.561,184.761
					c-0.276,0-0.5-0.224-0.5-0.5v-2c0-0.276,0.224-0.5,0.5-0.5c0.276,0,0.5,0.224,0.5,0.5v2
					C578.061,184.538,577.837,184.761,577.561,184.761z M577.561,177.761c-0.276,0-0.5-0.224-0.5-0.5v-2c0-0.276,0.224-0.5,0.5-0.5
					c0.276,0,0.5,0.224,0.5,0.5v2C578.061,177.538,577.837,177.761,577.561,177.761z M577.561,170.761c-0.276,0-0.5-0.224-0.5-0.5
					v-2c0-0.276,0.224-0.5,0.5-0.5c0.276,0,0.5,0.224,0.5,0.5v2C578.061,170.538,577.837,170.761,577.561,170.761z M577.561,163.761
					c-0.276,0-0.5-0.224-0.5-0.5v-2c0-0.276,0.224-0.5,0.5-0.5c0.276,0,0.5,0.224,0.5,0.5v2
					C578.061,163.538,577.837,163.761,577.561,163.761z M577.561,156.761c-0.276,0-0.5-0.224-0.5-0.5v-2c0-0.276,0.224-0.5,0.5-0.5
					c0.276,0,0.5,0.224,0.5,0.5v2C578.061,156.538,577.837,156.761,577.561,156.761z M577.561,149.761c-0.276,0-0.5-0.224-0.5-0.5
					v-2c0-0.276,0.224-0.5,0.5-0.5c0.276,0,0.5,0.224,0.5,0.5v2C578.061,149.538,577.837,149.761,577.561,149.761z M577.561,142.761
					c-0.276,0-0.5-0.224-0.5-0.5v-2c0-0.276,0.224-0.5,0.5-0.5c0.276,0,0.5,0.224,0.5,0.5v2
					C578.061,142.538,577.837,142.761,577.561,142.761z M577.561,135.761c-0.276,0-0.5-0.224-0.5-0.5v-2c0-0.276,0.224-0.5,0.5-0.5
					c0.276,0,0.5,0.224,0.5,0.5v2C578.061,135.538,577.837,135.761,577.561,135.761z"/>
			</g>
			<g>
				<g>
					<path style="fill:#FFFFFF;" d="M376.635,171.754H271.476c-6.479,0-11.731,5.252-11.731,11.731v51.224
						c0,6.479,5.252,11.731,11.731,11.731h5.937c2.794,0,5.06,2.265,5.06,5.06v6.293c0,2.185,2.642,3.28,4.187,1.734l11.606-11.605
						c0.949-0.949,2.236-1.482,3.578-1.482h74.791c6.479,0,11.731-5.252,11.731-11.731v-51.224
						C388.366,177.007,383.114,171.754,376.635,171.754z"/>
				</g>
				<g>
					<g>
						<path style="fill:#E6D1F9;" d="M343.868,192.552h-65.303c-1.034,0-1.87-0.837-1.87-1.87c0-1.034,0.836-1.87,1.87-1.87h65.303
							c1.034,0,1.87,0.836,1.87,1.87C345.738,191.716,344.902,192.552,343.868,192.552z"/>
					</g>
					<g>
						<path style="fill:#E6D1F9;" d="M317.006,205.63h-38.44c-1.034,0-1.87-0.837-1.87-1.87c0-1.034,0.836-1.87,1.87-1.87h38.44
							c1.034,0,1.87,0.836,1.87,1.87C318.876,204.793,318.039,205.63,317.006,205.63z"/>
					</g>
					<g>
						<path style="fill:#E6D1F9;" d="M347.028,218.706h-68.463c-1.034,0-1.87-0.837-1.87-1.87c0-1.034,0.836-1.87,1.87-1.87h68.463
							c1.034,0,1.87,0.837,1.87,1.87C348.898,217.87,348.062,218.706,347.028,218.706z"/>
					</g>
					<g>
						<path style="fill:#E6D1F9;" d="M286.455,231.783h-7.89c-1.034,0-1.87-0.836-1.87-1.87c0-1.034,0.836-1.87,1.87-1.87h7.89
							c1.034,0,1.87,0.836,1.87,1.87C288.326,230.947,287.489,231.783,286.455,231.783z"/>
					</g>
					<g>
						<path style="fill:#E6D1F9;" d="M329.807,205.63h-4.798c-1.034,0-1.87-0.837-1.87-1.87c0-1.034,0.836-1.87,1.87-1.87h4.798
							c1.034,0,1.87,0.836,1.87,1.87C331.677,204.793,330.841,205.63,329.807,205.63z"/>
					</g>
					<g>
						<path style="fill:#E6D1F9;" d="M369.546,205.63h-31.352c-1.034,0-1.87-0.837-1.87-1.87c0-1.034,0.837-1.87,1.87-1.87h31.352
							c1.034,0,1.87,0.836,1.87,1.87C371.416,204.793,370.579,205.63,369.546,205.63z"/>
					</g>
					<g>
						<path style="fill:#E6D1F9;" d="M369.546,192.552h-17.517c-1.034,0-1.87-0.837-1.87-1.87c0-1.034,0.837-1.87,1.87-1.87h17.517
							c1.034,0,1.87,0.836,1.87,1.87C371.416,191.716,370.579,192.552,369.546,192.552z"/>
					</g>
					<g>
						<path style="fill:#E6D1F9;" d="M302.263,231.783h-7.89c-1.034,0-1.87-0.836-1.87-1.87c0-1.034,0.837-1.87,1.87-1.87h7.89
							c1.034,0,1.87,0.836,1.87,1.87C304.133,230.947,303.297,231.783,302.263,231.783z"/>
					</g>
				</g>
			</g>
		</g>
	</g>
</g>
<g id="BACKGROUND_1">
</g>
</svg>
